<?xml version="1.0" standalone="no"?>
<!DOCTYPE svg PUBLIC "-//W3C//DTD SVG 20010904//EN"
 "http://www.w3.org/TR/2001/REC-SVG-20010904/DTD/svg10.dtd">
<svg version="1.0" xmlns="http://www.w3.org/2000/svg"
 width="512.000000pt" height="512.000000pt" viewBox="0 0 512.000000 512.000000"
 preserveAspectRatio="xMidYMid meet">

<g transform="translate(0.000000,512.000000) scale(0.100000,-0.100000)"
fill="#000000" stroke="none">
<path d="M1923 5105 c-158 -43 -267 -153 -308 -312 -22 -84 -22 -902 0 -986
21 -83 56 -145 112 -200 90 -91 194 -127 368 -127 l110 0 175 -305 c96 -167
177 -304 180 -304 3 0 84 137 180 304 l175 305 110 0 c174 0 278 36 368 127
56 55 91 117 112 200 22 84 22 902 0 986 -42 162 -150 270 -312 312 -82 21
-1191 21 -1270 0z m1234 -305 c63 -38 63 -35 63 -500 0 -465 0 -462 -63 -500
-29 -18 -51 -20 -224 -20 l-191 0 -89 -155 c-48 -85 -90 -154 -93 -154 -3 0
-45 69 -93 154 l-89 155 -189 0 c-211 0 -234 5 -269 63 -19 30 -20 53 -20 455
0 467 0 464 63 502 31 19 54 20 597 20 543 0 566 -1 597 -20z"/>
<path d="M531 4174 c-134 -29 -293 -126 -376 -231 -213 -268 -201 -646 27
-889 l48 -51 -58 -61 c-71 -74 -125 -173 -152 -278 -19 -74 -20 -114 -20 -871
l0 -793 500 0 500 0 0 -500 0 -500 505 0 505 0 0 794 c0 498 -4 813 -10 847
-34 178 -181 325 -359 359 -30 5 -134 10 -231 10 l-178 0 -5 308 c-4 333 -8
358 -66 477 -16 33 -46 79 -65 102 -20 22 -36 45 -36 50 1 4 21 23 45 41 99
72 195 223 232 362 27 102 23 265 -10 363 -111 339 -451 536 -796 461z m253
-299 c102 -31 190 -106 236 -200 67 -138 36 -318 -73 -427 -185 -184 -496
-131 -607 103 -100 212 8 453 235 525 55 17 150 17 209 -1z m-29 -1077 c28
-15 64 -41 81 -60 91 -99 94 -120 94 -615 l0 -412 339 -3 c325 -3 341 -4 367
-24 15 -11 37 -33 48 -48 21 -27 21 -39 24 -682 l2 -654 -205 0 -205 0 0 500
0 500 -500 0 -501 0 3 648 3 647 23 50 c36 79 98 136 187 172 51 21 181 11
240 -19z"/>
<path d="M4291 4175 c-228 -50 -422 -230 -498 -462 -33 -98 -37 -261 -10 -363
37 -139 133 -290 232 -362 24 -18 44 -37 45 -41 0 -5 -16 -28 -36 -50 -19 -23
-49 -69 -65 -102 -58 -119 -62 -144 -66 -477 l-5 -308 -178 0 c-97 0 -201 -5
-231 -10 -178 -34 -325 -181 -359 -359 -6 -34 -10 -349 -10 -847 l0 -794 505
0 505 0 0 500 0 500 500 0 500 0 0 793 c0 757 -1 797 -20 871 -27 105 -81 204
-152 278 l-58 61 48 51 c189 201 234 501 112 751 -73 149 -173 249 -325 321
-127 61 -292 79 -434 49z m306 -319 c69 -31 147 -106 181 -172 115 -226 -33
-509 -283 -543 -298 -41 -524 267 -395 534 27 55 90 127 137 156 107 67 246
76 360 25z m43 -1054 c63 -33 125 -96 152 -156 l23 -51 3 -647 3 -648 -501 0
-500 0 0 -500 0 -500 -205 0 -205 0 2 654 c3 643 3 655 24 682 11 15 33 37 48
48 26 20 42 21 367 24 l339 3 0 412 c0 495 3 516 94 615 30 33 86 67 136 83
50 16 172 5 220 -19z"/>
</g>
</svg>
