<?xml version="1.0" encoding="UTF-8" standalone="no" ?>
<!DOCTYPE svg PUBLIC "-//W3C//DTD SVG 1.1//EN" "http://www.w3.org/Graphics/SVG/1.1/DTD/svg11.dtd">
<svg xmlns="http://www.w3.org/2000/svg" xmlns:xlink="http://www.w3.org/1999/xlink" version="1.1" width="400" height="400" viewBox="0 0 400 400" xml:space="preserve">
<desc>Created with Fabric.js 5.2.4</desc>
<defs>
</defs>
<rect x="0" y="0" width="100%" height="100%" fill="transparent"></rect>
<g transform="matrix(Infinity NaN NaN Infinity 0 0)" id="0bea6a4c-a075-4bc5-9ef5-ccf21bfb31ae"  >
</g>
<g transform="matrix(1 0 0 1 200 200)" id="bb54c370-1c58-425f-bf9b-7625cd943953"  >
<rect style="stroke: none; stroke-width: 1; stroke-dasharray: none; stroke-linecap: butt; stroke-dashoffset: 0; stroke-linejoin: miter; stroke-miterlimit: 4; fill: rgb(255,255,255); fill-rule: nonzero; opacity: 1;" vector-effect="non-scaling-stroke"  x="-200" y="-200" rx="0" ry="0" width="400" height="400" />
</g>
<g transform="matrix(1.86 0 0 1.86 475 200)"  >
<g style="" vector-effect="non-scaling-stroke"   >
		<g transform="matrix(1.33 0 0 1.33 117.47 39.73)" id="path2"  >
<path style="stroke: none; stroke-width: 1; stroke-dasharray: none; stroke-linecap: butt; stroke-dashoffset: 0; stroke-linejoin: miter; stroke-miterlimit: 4; fill: rgb(27,25,24); fill-rule: evenodd; opacity: 1;" vector-effect="non-scaling-stroke"  transform=" translate(-357.03, -301.6)" d="M 447.6532 312.3805 L 447.6532 295.0503 L 449.46200000000005 295.0503 L 449.46200000000005 302.1755 L 456.18410000000006 302.1755 L 456.18410000000006 295.0503 L 457.99910000000006 295.0503 L 457.99910000000006 312.3805 L 456.18410000000006 312.3805 L 456.18410000000006 303.9953 L 449.46200000000005 303.9953 L 449.46200000000005 312.3805 z M 434.25690000000003 304.00129999999996 C 434.25690000000003 302.6534 434.2961 301.50139999999993 434.37600000000003 300.54639999999995 C 434.454 299.5953999999999 434.66490000000005 298.65539999999993 435.01290000000006 297.73329999999993 C 435.3559000000001 296.80639999999994 435.9229000000001 296.0483999999999 436.70610000000005 295.44629999999995 C 437.49100000000004 294.84939999999995 438.54410000000007 294.53049999999996 439.8681 294.48539999999997 C 440.76300000000003 294.48539999999997 441.57910000000004 294.65349999999995 442.31300000000005 294.99339999999995 C 443.04800000000006 295.33119999999997 443.64300000000003 295.90329999999994 444.09800000000007 296.71029999999996 C 444.55010000000004 297.5114 444.7780000000001 298.57349999999997 444.7780000000001 299.88649999999996 C 444.7780000000001 300.0875 444.7700000000001 300.23549999999994 444.7551000000001 300.32329999999996 L 442.95 300.32329999999996 C 442.95 299.1495 442.73109999999997 298.18829999999997 442.28999999999996 297.43649999999997 C 441.85409999999996 296.68649999999997 440.979 296.30949999999996 439.67909999999995 296.30949999999996 C 438.32489999999996 296.30949999999996 437.4438999999999 297.00339999999994 437.042 298.40139999999997 C 436.6361 299.8003 436.43589999999995 301.4385 436.43589999999995 303.3173 L 436.43589999999995 303.9953 C 436.43589999999995 305.3784 436.50089999999994 306.5363 436.63009999999997 307.4794 C 436.75509999999997 308.4253 437.05699999999996 309.2204 437.53409999999997 309.8704 C 438.00919999999996 310.51840000000004 438.7229 310.8745 439.67909999999995 310.9334 C 440.56119999999993 310.9334 441.23099999999994 310.6735 441.6859999999999 310.1494 C 442.14719999999994 309.62440000000004 442.4359999999999 309.0093 442.5669999999999 308.29830000000004 C 442.6998999999999 307.5894 442.7659999999999 306.8215 442.7659999999999 306.00540000000007 L 444.7550999999999 306.00540000000007 C 444.7700999999999 306.14340000000004 444.7779999999999 306.3475000000001 444.7779999999999 306.61030000000005 C 444.7779999999999 307.4485 444.6858999999999 308.23740000000004 444.5049999999999 308.97440000000006 C 444.3230999999999 309.7103000000001 444.02999999999986 310.36050000000006 443.64299999999986 310.92940000000004 C 443.2529999999999 311.49750000000006 442.7429999999999 311.94450000000006 442.10809999999987 312.2705 C 441.4750999999999 312.59540000000004 440.7230999999999 312.75750000000005 439.86809999999986 312.75750000000005 C 438.67699999999985 312.70650000000006 437.71209999999985 312.4664000000001 436.9639999999998 312.02450000000005 C 436.2198999999998 311.58540000000005 435.65099999999984 310.98330000000004 435.26099999999985 310.2205000000001 C 434.87009999999987 309.45630000000006 434.60389999999984 308.56930000000006 434.46389999999985 307.5613000000001 C 434.3249999999999 306.55840000000006 434.25689999999986 305.3665000000001 434.25689999999986 304.00130000000007 z M 425.7162 312.3805 L 425.7162 305.81739999999996 L 420.4791 295.0503 L 422.8172 295.0503 L 426.62010000000004 303.6223 L 430.45000000000005 295.0503 L 432.60600000000005 295.0503 L 427.71400000000006 305.8174 L 427.71400000000006 312.38050000000004 z M 407.80400000000003 312.3805 L 407.80400000000003 295.0503 L 411.071 295.0503 L 416.499 310.7455 L 416.499 295.0503 L 418.4909 295.0503 L 418.4909 312.3805 L 415.22 312.3805 L 409.7979 296.4994 L 409.7979 312.3805 z M 390.78990000000005 312.3805 L 387.17320000000007 295.0503 L 389.35220000000004 295.0503 L 391.6899 306.9193 L 392.0649 310.3724 L 392.593 306.9193 L 395.149 295.0503 L 397.4871 295.0503 L 400.0419 307.4525 L 400.3841 310.5635 L 400.7591 307.4525 L 403.2822 295.0503 L 405.2801 295.0503 L 401.6631 312.3805 L 399.1082 312.3805 L 396.5871 299.0673 L 396.21200000000005 296.4994 L 396.0522 299.0673 L 393.31300000000005 312.3805 z M 382.62420000000003 305.6323 L 380.446 296.6834 L 378.288 305.6323 z M 374.305 312.3805 L 379.1982 295.0503 L 381.905 295.0503 L 386.6162 312.3805 L 384.4361 312.3805 L 383.184 307.4525 L 377.73690000000005 307.4525 L 376.4852 312.3805 z M 363.9969 302.8975 L 367.077 302.8975 C 367.7372 302.8975 368.3001 302.7824 368.7639 302.55249999999995 C 369.233 302.32349999999997 369.58509999999995 301.9915 369.8229 301.5635 C 370.061 301.13629999999995 370.184 300.62239999999997 370.184 300.0223 C 370.184 299.9835 370.17900000000003 299.9115 370.17100000000005 299.8193 C 370.16300000000007 299.7224 370.1591 299.6515 370.1591 299.6005 C 370.067 298.6163 369.74890000000005 297.9153 369.1981 297.4955 C 368.64910000000003 297.0774 367.8191 296.8685 366.7059 296.8685 L 363.9969 296.8685 z M 361.99899999999997 312.3805 L 361.99899999999997 295.0503 L 367.07699999999994 295.0503 C 368.00499999999994 295.0503 368.8270999999999 295.1595 369.54599999999994 295.3723 C 370.26399999999995 295.5895 370.87989999999996 296.0164 371.39099999999996 296.6596 C 371.90489999999994 297.3005 372.21989999999994 298.2203 372.3409 299.4174 L 372.34119999999996 299.74539999999996 C 372.34119999999996 300.4464 372.17709999999994 301.08329999999995 371.8599 301.65139999999997 C 371.5381 302.22229999999996 371.13 302.67549999999994 370.626 303.01539999999994 C 370.1239 303.35639999999995 369.606 303.5593999999999 369.0689 303.62229999999994 C 369.2631 303.66139999999996 369.5071 303.71639999999996 369.792 303.77849999999995 C 370.08309999999994 303.84139999999996 370.3581 303.93839999999994 370.61999999999995 304.06929999999994 C 370.8819 304.2002999999999 371.11999999999995 304.4074999999999 371.33489999999995 304.69629999999995 C 371.54999999999995 304.98549999999994 371.70199999999994 305.35849999999994 371.78189999999995 305.81739999999996 C 371.84799999999996 306.55449999999996 371.92509999999993 307.41139999999996 372.0140999999999 308.38449999999995 C 372.10819999999995 309.3545 372.2308999999999 310.1773999999999 372.39309999999995 310.84329999999994 C 372.5549 311.51339999999993 372.77599999999995 311.84329999999994 373.0568999999999 311.84329999999994 L 373.0568999999999 312.3804999999999 L 370.68799999999993 312.3804999999999 C 370.4339999999999 311.86229999999995 370.28009999999995 311.17749999999995 370.22489999999993 310.32539999999995 C 370.17499999999995 309.46849999999995 370.1119999999999 308.57329999999996 370.0439999999999 307.6304999999999 C 369.97509999999994 306.69049999999993 369.74889999999994 305.9704999999999 369.3698999999999 305.4724999999999 C 368.98889999999994 304.9704999999999 368.34489999999994 304.7203999999999 367.42509999999993 304.7203999999999 L 363.9968999999999 304.7203999999999 L 363.9968999999999 312.3804999999999 z M 351.13009999999997 303.2495 L 353.8431 303.2495 C 354.983 303.2495 355.80899999999997 303.01140000000004 356.3311 302.5324 C 356.849 302.0545 357.10609999999997 301.2043 357.10609999999997 299.9775 C 357.10609999999997 298.02840000000003 356.08 297.05440000000004 354.02799999999996 297.05440000000004 L 351.13009999999997 297.05440000000004 z M 349.13309999999996 312.3805 L 349.13309999999996 295.0503 L 354.02799999999996 295.0503 C 355.515 295.0503 356.76309999999995 295.41339999999997 357.7711 296.1323 C 358.782 296.8523 359.286 298.1945 359.286 300.1654 C 359.286 301.09349999999995 359.134 301.9294 358.827 302.66929999999996 C 358.5192 303.40739999999994 358.0129 303.9953 357.3119 304.4364 C 356.6081 304.8763 355.70889999999997 305.0955 354.604 305.0955 C 354.437 305.0955 354.3021 305.0855 354.21 305.06940000000003 L 351.13009999999997 305.06940000000003 L 351.13009999999997 312.38050000000004 z M 325.95189999999997 312.3805 L 322.33489999999995 295.0503 L 324.5138999999999 295.0503 L 326.85189999999994 306.9193 L 327.2260999999999 310.3724 L 327.75589999999994 306.9193 L 330.31109999999995 295.0503 L 332.64789999999994 295.0503 L 335.20199999999994 307.4525 L 335.54689999999994 310.5635 L 335.9210999999999 307.4525 L 338.4438999999999 295.0503 L 340.44089999999994 295.0503 L 336.8238999999999 312.3805 L 334.27109999999993 312.3805 L 331.74789999999996 299.0673 L 331.37289999999996 296.4994 L 331.215 299.0673 L 328.47389999999996 312.3805 z M 315.546 290.4384 L 318.077 290.4384 L 315.1791 293.7535 L 313.55490000000003 293.7535 z M 311.233 303.4054 C 311.233 303.41139999999996 311.242 303.5795 311.254 303.90549999999996 C 311.264 304.2315 311.2719 304.5954 311.2801 304.99139999999994 C 311.3101 306.02439999999996 311.419 306.98529999999994 311.6049 307.86429999999996 C 311.794 308.74929999999995 312.1611 309.50329999999997 312.7181 310.13039999999995 C 313.2621 310.76839999999993 314.0351 311.0893 315.036 311.0893 C 316.0449 311.0893 316.817 310.8084 317.35790000000003 310.2514 C 317.899 309.7023 318.25500000000005 309.0183 318.4209 308.1903 C 318.59090000000003 307.32349999999997 318.67600000000004 306.3665 318.67600000000004 305.3234 C 318.67600000000004 305.2613 318.67300000000006 305.12239999999997 318.6641 304.8993 C 318.65610000000004 304.68129999999996 318.6519 304.4934 318.6519 304.34139999999996 L 318.6522 303.4054 C 318.6522 301.96029999999996 318.5589 300.7534 318.37489999999997 299.7845 C 318.21189999999996 298.81129999999996 317.84799999999996 298.0165 317.28389999999996 297.3974 C 316.72399999999993 296.7905 315.91299999999995 296.4875 314.84999999999997 296.4875 C 313.8812 296.4875 313.12999999999994 296.82140000000004 312.60499999999996 297.49150000000003 C 312.06419999999997 298.1815 311.70099999999996 299.0285 311.51199999999994 300.04040000000003 C 311.3270999999999 301.08950000000004 311.23299999999995 302.21430000000004 311.23299999999995 303.40540000000004 z M 309.24 303.4273 C 309.2669 302.6633 309.312 301.8084 309.3829 300.8543 C 309.4481 299.8193 309.642 298.8544 309.9589 297.95840000000004 C 310.288 297.06350000000003 310.8509 296.3004 311.65090000000004 295.6734 C 312.47090000000003 295.03450000000004 313.59200000000004 294.6943 315.01300000000003 294.6455 C 316.2019 294.6455 317.19090000000006 294.9114 317.98010000000005 295.4404 C 318.77720000000005 295.9543 319.37100000000004 296.6494 319.76990000000006 297.5185 C 320.1401000000001 298.29630000000003 320.41900000000004 299.2275 320.59900000000005 300.32140000000004 C 320.73900000000003 301.14540000000005 320.8079000000001 302.24550000000005 320.8079000000001 303.61440000000005 L 320.8079000000001 304.10450000000003 C 320.8079000000001 306.46430000000004 320.4621000000001 308.48740000000004 319.7639000000001 310.18140000000005 C 319.0399000000001 311.87450000000007 317.45400000000006 312.7243 315.0130000000001 312.7243 C 313.5240000000001 312.7243 312.3499000000001 312.3493 311.4890000000001 311.5973 C 310.6420000000001 310.88640000000004 310.05410000000006 309.8503 309.7270000000001 308.49530000000004 C 309.4021000000001 307.1324 309.24000000000007 305.44440000000003 309.24000000000007 303.42730000000006 z M 296.2607 304.0013 C 296.2607 302.65340000000003 296.2996 301.5014 296.3798 300.5464 C 296.4577 299.5954 296.6698 298.6554 297.0184 297.7333 C 297.36109999999996 296.8064 297.9266 296.04839999999996 298.7107 295.4463 C 299.4948 294.8494 300.5487 294.5305 301.8708 294.4854 C 302.76739999999995 294.4854 303.5818 294.6535 304.3171 294.9934 C 305.0515 295.3312 305.64599999999996 295.9033 306.102 296.7103 C 306.5539 297.51140000000004 306.78209999999996 298.5735 306.78209999999996 299.8865 C 306.78209999999996 300.08750000000003 306.7741 300.2355 306.75999999999993 300.3233 L 304.95489999999995 300.3233 C 304.95489999999995 299.1495 304.73429999999996 298.1883 304.2938 297.4365 C 303.85729999999995 296.6865 302.9842 296.3095 301.6823 296.3095 C 300.3299 296.3095 299.448 297.0034 299.0466 298.4014 C 298.6404 299.80030000000005 298.44030000000004 301.43850000000003 298.44030000000004 303.31730000000005 L 298.44030000000004 303.99530000000004 C 298.44030000000004 305.37840000000006 298.5058 306.53630000000004 298.63250000000005 307.47940000000006 C 298.75970000000007 308.42530000000005 299.06140000000005 309.22040000000004 299.53790000000004 309.8704000000001 C 300.01270000000005 310.5184000000001 300.7273 310.87450000000007 301.68230000000005 310.93340000000006 C 302.56720000000007 310.93340000000006 303.23510000000005 310.67350000000005 303.69120000000004 310.14940000000007 C 304.1512 309.6244000000001 304.44010000000003 309.00930000000005 304.5722 308.2983000000001 C 304.704 307.58940000000007 304.7683 306.82150000000007 304.7683 306.0054000000001 L 306.76 306.0054000000001 C 306.7741 306.1434000000001 306.7821 306.34750000000014 306.7821 306.6103000000001 C 306.7821 307.4485000000001 306.6891 308.2374000000001 306.50710000000004 308.9744000000001 C 306.32710000000003 309.71030000000013 306.03600000000006 310.3605000000001 305.646 310.9294000000001 C 305.2556 311.4975000000001 304.74600000000004 311.9445000000001 304.1121 312.2705000000001 C 303.4783 312.5954000000001 302.7294 312.7575000000001 301.8708 312.7575000000001 C 300.6805 312.7065000000001 299.7147 312.46640000000014 298.96869999999996 312.0245000000001 C 298.22339999999997 311.5854000000001 297.65619999999996 310.9833000000001 297.26529999999997 310.22050000000013 C 296.87499999999994 309.4563000000001 296.60709999999995 308.5693000000001 296.46939999999995 307.56130000000013 C 296.32989999999995 306.5584000000001 296.26069999999993 305.36650000000014 296.26069999999993 304.0013000000001 z M 284.8533 310.56350000000003 L 287.9413 310.56350000000003 C 290.3681 310.56350000000003 291.5819 308.61640000000006 291.5819 304.72440000000006 C 291.5819 304.5325000000001 291.5769 304.35050000000007 291.57 304.16940000000005 C 291.5583 303.99530000000004 291.5535 303.87630000000007 291.5535 303.80850000000004 C 291.5535 302.26140000000004 291.4733 301.00730000000004 291.3143 300.05830000000003 C 291.1561 299.1084 290.7743 298.33740000000006 290.1716 297.74750000000006 C 289.56440000000003 297.16130000000004 288.6327 296.86850000000004 287.3806 296.86850000000004 L 284.8533 296.86850000000004 z M 282.8571 312.38050000000004 L 282.8571 295.05030000000005 L 287.9413 295.05030000000005 C 291.8055 295.05030000000005 293.737 297.72940000000006 293.737 303.08540000000005 C 293.737 304.52830000000006 293.622 305.91550000000007 293.39230000000003 307.24330000000003 C 293.1659 308.56930000000006 292.61310000000003 309.75730000000004 291.74 310.8084 C 290.863 311.8544 289.55740000000003 312.3805 287.822 312.3805 L 287.5663 312.3805 z M 276.6892 305.63230000000004 L 274.50960000000003 296.68340000000006 L 272.35330000000005 305.63230000000004 z M 268.36980000000005 312.38050000000004 L 273.26150000000007 295.05030000000005 L 275.97060000000005 295.05030000000005 L 280.68070000000006 312.38050000000004 L 278.5008000000001 312.38050000000004 L 277.2499000000001 307.45250000000004 L 271.8006000000001 307.45250000000004 L 270.5496000000001 312.38050000000004 z M 258.06050000000005 302.89750000000004 L 261.1403 302.89750000000004 C 261.8016 302.89750000000004 262.36490000000003 302.78240000000005 262.82890000000003 302.5525 C 263.29580000000004 302.3235 263.64810000000006 301.99150000000003 263.8865 301.56350000000003 C 264.1277 301.1363 264.2468 300.6224 264.2468 300.02230000000003 C 264.2468 299.98350000000005 264.2438 299.91150000000005 264.2352 299.81930000000006 C 264.22720000000004 299.72240000000005 264.2233 299.65150000000006 264.2233 299.60050000000007 C 264.1306 298.6163000000001 263.81419999999997 297.91530000000006 263.2615 297.49550000000005 C 262.71270000000004 297.07740000000007 261.8827 296.86850000000004 260.7704 296.86850000000004 L 258.0605 296.86850000000004 z M 256.06320000000005 312.38050000000004 L 256.06320000000005 295.05030000000005 L 261.1403 295.05030000000005 C 262.0672 295.05030000000005 262.8904 295.15950000000004 263.6093 295.37230000000005 C 264.3279 295.58950000000004 264.94210000000004 296.01640000000003 265.4569 296.65960000000007 C 265.9706 297.30050000000006 266.2841 298.22030000000007 266.4031 299.41740000000004 L 266.4031 299.7454 C 266.4031 300.44640000000004 266.241 301.0833 265.9246 301.6514 C 265.6032 302.2223 265.1933 302.6755 264.6913 303.0154 C 264.19010000000003 303.3564 263.6717 303.5594 263.1345 303.6223 C 263.327 303.6614 263.5702 303.7164 263.8562 303.7785 C 264.1473 303.8414 264.4206 303.9384 264.6833 304.0693 C 264.9461 304.20029999999997 265.1862 304.40749999999997 265.3982 304.6963 C 265.6151 304.9855 265.76529999999997 305.3585 265.84639999999996 305.8174 C 265.91189999999995 306.5545 265.9901 307.4114 266.078 308.3845 C 266.17069999999995 309.35450000000003 266.29569999999995 310.1774 266.45669999999996 310.8433 C 266.61999999999995 311.5134 266.83969999999994 311.8433 267.12199999999996 311.8433 L 267.12199999999996 312.3805 L 264.75359999999995 312.3805 C 264.49799999999993 311.8623 264.34349999999995 311.1775 264.2887999999999 310.3254 C 264.23909999999995 309.4685 264.1773999999999 308.5733 264.10709999999995 307.6305 C 264.03899999999993 306.6905 263.81419999999997 305.97049999999996 263.43549999999993 305.47249999999997 C 263.0525999999999 304.97049999999996 262.40799999999996 304.7204 261.4889999999999 304.7204 L 258.06049999999993 304.7204 L 258.06049999999993 312.3805 z" stroke-linecap="round" />
</g>
		<g transform="matrix(1.33 0 0 1.33 117.35 6.86)" id="path4"  >
<path style="stroke: none; stroke-width: 1; stroke-dasharray: none; stroke-linecap: butt; stroke-dashoffset: 0; stroke-linejoin: miter; stroke-miterlimit: 4; fill: rgb(27,25,24); fill-rule: evenodd; opacity: 1;" vector-effect="non-scaling-stroke"  transform=" translate(-356.94, -276.95)" d="M 424.675 278.8455 L 422.49510000000004 269.9623 L 420.33910000000003 278.8455 z M 416.3542 285.54630000000003 L 421.24899999999997 268.34340000000003 L 423.9561 268.34340000000003 L 428.667 285.54630000000003 L 426.4872 285.54630000000003 L 425.2351 280.65340000000003 L 419.7861 280.65340000000003 L 418.536 285.54630000000003 z M 407.1042 283.74120000000005 L 410.37 283.74120000000005 C 412.1631 283.74120000000005 413.0589 282.71250000000003 413.0589 280.65340000000003 C 413.0592 279.5165 412.8129 278.7185 412.3131 278.25730000000004 C 411.8131 277.7984 411.048 277.56940000000003 410.0029 277.56940000000003 L 407.1042 277.56940000000003 z M 409.6321 275.76140000000004 C 410.69399999999996 275.76140000000004 411.44399999999996 275.47540000000004 411.876 274.9073 C 412.31309999999996 274.3415 412.53 273.65950000000004 412.53 272.8604 C 412.53 272.2595 412.44599999999997 271.7515 412.27 271.3453 C 412.0999 270.9363 411.8309 270.6185 411.4599 270.3915 C 411.08910000000003 270.1655 410.6061 270.0244 410.0029 269.9623 L 407.1042 269.9623 L 407.1042 275.76140000000004 z M 405.106 285.54630000000003 L 405.106 268.34340000000003 L 409.6321 268.34340000000003 C 410.5111 268.34340000000003 411.3329 268.4775 412.096 268.74940000000004 C 412.86220000000003 269.01840000000004 413.4869 269.49150000000003 413.9751 270.16330000000005 C 414.466 270.83540000000005 414.7081 271.7354 414.7081 272.8604 C 414.7081 273.85630000000003 414.481 274.6304 414.0201 275.1775 C 413.5612 275.7314 412.95 276.16540000000003 412.1861 276.4814 C 413.274 276.6535 414.0281 277.0835 414.4501 277.77230000000003 C 414.87190000000004 278.45630000000006 415.07890000000003 279.3543 415.07890000000003 280.46830000000006 C 415.07910000000004 281.5305000000001 414.9071 282.43450000000007 414.559 283.18850000000003 C 414.2081 283.94250000000005 413.653 284.52250000000004 412.8951 284.9315 C 412.1359 285.3414 411.173 285.54630000000003 410.0029 285.54630000000003 z M 392.2659 283.74120000000005 L 400.2432 270.14740000000006 L 392.4522 270.14740000000006 L 392.4292 268.3434000000001 L 402.39889999999997 268.3434000000001 L 402.39889999999997 270.14740000000006 L 394.44599999999997 283.74120000000005 L 402.5852 283.74120000000005 L 402.5852 285.54630000000003 L 392.2659 285.54630000000003 z M 387.3742 285.54630000000003 L 387.3742 268.34340000000003 L 389.37199999999996 268.34340000000003 L 389.37199999999996 285.54630000000003 z M 375.22319999999996 278.8455 L 373.0442 269.9623 L 370.8882 278.8455 z M 366.9029 285.54630000000003 L 371.79609999999997 268.34340000000003 L 374.50519999999995 268.34340000000003 L 379.2160999999999 285.54630000000003 L 377.0358999999999 285.54630000000003 L 375.78219999999993 280.65340000000003 L 370.33509999999995 280.65340000000003 L 369.08309999999994 285.54630000000003 z M 351.3271 285.54630000000003 L 347.71009999999995 268.34340000000003 L 349.88999999999993 268.34340000000003 L 352.22799999999995 280.1245 L 352.60299999999995 283.55240000000003 L 353.1319 280.1245 L 355.686 268.34340000000003 L 358.024 268.34340000000003 L 360.5791 280.65340000000003 L 360.923 283.74120000000005 L 361.298 280.65340000000003 L 363.8211 268.34340000000003 L 365.817 268.34340000000003 L 362.202 285.54630000000003 L 359.6451 285.54630000000003 L 357.124 272.32950000000005 L 356.74890000000005 269.78030000000007 L 356.59220000000005 272.32950000000005 L 353.85 285.54630000000003 z M 336.6819 276.6614 C 336.6819 276.67330000000004 336.6989 277.1963 336.7329 278.2273 C 336.763 279.2594 336.873 280.2144 337.066 281.0874 C 337.2559 281.9582 337.6219 282.7106 338.1681 283.3353 C 338.7161 283.95840000000004 339.4851 284.2705 340.48089999999996 284.2705 C 341.50199999999995 284.2705 342.27809999999994 283.99550000000005 342.81609999999995 283.4524 C 343.35299999999995 282.9033 343.70789999999994 282.2185 343.8751 281.3953 C 344.04089999999997 280.57120000000003 344.12199999999996 279.6304 344.12199999999996 278.56350000000003 C 344.12199999999996 278.33130000000006 344.11799999999994 278.0033 344.11009999999993 277.5815 C 344.1010999999999 277.1575 344.0978999999999 276.8505 344.0978999999999 276.6614 C 344.0978999999999 275.23130000000003 344.01289999999995 274.0303 343.8390999999999 273.0614 C 343.6658999999999 272.0874 343.2990999999999 271.2983 342.74209999999994 270.6925 C 342.1859999999999 270.0853 341.3709999999999 269.7803 340.30009999999993 269.7803 C 339.3458999999999 269.7803 338.59899999999993 270.11650000000003 338.06299999999993 270.7943 C 337.5220999999999 271.4683 337.1578999999999 272.31140000000005 336.9690999999999 273.31940000000003 C 336.7748999999999 274.3274 336.6818999999999 275.4445 336.6818999999999 276.6614 z M 334.6809 276.66540000000003 C 334.7181 275.97940000000006 334.7629 275.12840000000006 334.8281 274.11650000000003 C 334.89300000000003 273.10220000000004 335.088 272.14950000000005 335.4089 271.25350000000003 C 335.72810000000004 270.35630000000003 336.2939 269.5955 337.1051 268.97240000000005 C 337.917 268.34740000000005 339.0449 268.01550000000003 340.4809 267.97240000000005 C 341.6791 267.97240000000005 342.6729 268.22950000000003 343.44910000000004 268.74940000000004 C 344.23 269.27040000000005 344.8199 269.95830000000007 345.22610000000003 270.8113 C 345.632 271.67130000000003 345.91100000000006 272.5994 346.05690000000004 273.5994 C 346.20410000000004 274.5995 346.278 275.6815 346.278 276.8505 L 346.278 277.3395 C 346.278 279.6712 345.9229 281.68129999999996 345.21590000000003 283.3665 C 344.5081 285.0483 342.9309 285.8905 340.4809 285.8905 C 338.97090000000003 285.8905 337.7889 285.5225 336.94190000000003 284.79229999999995 C 336.09200000000004 284.05839999999995 335.50190000000003 283.02629999999994 335.17300000000006 281.68839999999994 C 334.84510000000006 280.34929999999997 334.68090000000007 278.67539999999997 334.68090000000007 276.6653999999999 z M 323.7891 280.1245 L 325.77790000000005 280.1245 C 325.79010000000005 280.25350000000003 325.81700000000006 280.70840000000004 325.8561 281.48740000000004 C 325.89410000000004 282.2683 325.95700000000005 282.81340000000006 326.0421 283.11850000000004 C 326.1271 283.42940000000004 326.29290000000003 283.66330000000005 326.5319 283.83340000000004 C 326.776 284.00140000000005 327.1351 284.08540000000005 327.615 284.08540000000005 C 328.0541 284.08540000000005 328.426 284.03040000000004 328.7271 283.9195 C 329.02500000000003 283.8084 329.2761 283.55640000000005 329.472 283.16150000000005 C 329.6701 282.7633000000001 329.7699 282.16740000000004 329.7699 281.37230000000005 L 329.7699 268.34340000000003 L 331.7641 268.34340000000003 L 331.7641 280.1245 C 331.7641 281.11240000000004 331.7329 281.93330000000003 331.67199999999997 282.5813 C 331.6099 283.2335 331.4591 283.8135 331.2261 284.3175 C 330.99109999999996 284.8215 330.628 285.2184 330.12989999999996 285.4993 C 329.635 285.7825 328.974 285.9214 328.14789999999994 285.9214 L 327.7808999999999 285.9214 C 326.26199999999994 285.9214 325.21489999999994 285.5225 324.63609999999994 284.7223 C 324.05409999999995 283.9275 323.76499999999993 282.74940000000004 323.76499999999993 281.1864 C 323.76499999999993 280.7084 323.77399999999994 280.3504 323.7890999999999 280.1245 z M 318.892 278.8455 L 316.7141 269.9623 L 314.5569 278.8455 z M 310.574 285.54630000000003 L 315.4671 268.34340000000003 L 318.17400000000004 268.34340000000003 L 322.886 285.54630000000003 L 320.70610000000005 285.54630000000003 L 319.45290000000006 280.65340000000003 L 314.00500000000005 280.65340000000003 L 312.75300000000004 285.54630000000003 z M 300.2647 276.13250000000005 L 303.3445 276.13250000000005 C 304.00469999999996 276.13250000000005 304.5691 276.01650000000006 305.0331 275.79030000000006 C 305.5011 275.5613000000001 305.852 275.23130000000003 306.0921 274.80840000000006 C 306.3311 274.3824000000001 306.451 273.8724000000001 306.451 273.27830000000006 C 306.451 273.23940000000005 306.447 273.16940000000005 306.4399 273.0753000000001 C 306.4309 272.9795000000001 306.428 272.9095000000001 306.428 272.8604000000001 C 306.3359 271.8825000000001 306.0179 271.1863000000001 305.46569999999997 270.7705000000001 C 304.91689999999994 270.3563000000001 304.0866 270.14740000000006 302.97259999999994 270.14740000000006 L 300.26469999999995 270.14740000000006 z M 298.2674 285.54630000000003 L 298.2674 268.34340000000003 L 303.3445 268.34340000000003 C 304.2723 268.34340000000003 305.09549999999996 268.4503 305.81289999999996 268.66350000000006 C 306.53209999999996 268.87630000000007 307.14599999999996 269.3004000000001 307.65999999999997 269.93850000000003 C 308.17499999999995 270.57540000000006 308.48799999999994 271.4873 308.6079 272.6793 L 308.60819999999995 273.0033 C 308.60819999999995 273.69840000000005 308.44399999999996 274.3333 308.12799999999993 274.8974 C 307.8059999999999 275.4604 307.3968999999999 275.9114 306.89489999999995 276.2473 C 306.39199999999994 276.5894 305.87609999999995 276.7904 305.33869999999996 276.8505 C 305.5311 276.89050000000003 305.77489999999995 276.9423 306.0601 277.0055 C 306.3501 277.0673 306.625 277.16339999999997 306.88809999999995 277.2964 C 307.15 277.4234 307.38899999999995 277.6323 307.60189999999994 277.9194 C 307.81899999999996 278.2043 307.97009999999995 278.5754 308.05089999999996 279.0303 C 308.11609999999996 279.76140000000004 308.19289999999995 280.6104 308.28299999999996 281.5775 C 308.3751 282.54249999999996 308.49899999999997 283.3583 308.662 284.01849999999996 C 308.823 284.6835 309.04409999999996 285.01339999999993 309.3259 285.01339999999993 L 309.3259 285.5462999999999 L 306.957 285.5462999999999 C 306.703 285.03239999999994 306.54789999999997 284.35239999999993 306.4941 283.5053999999999 C 306.4431 282.6552999999999 306.38100000000003 281.7662999999999 306.3121 280.8314999999999 C 306.2421 279.8954999999999 306.0179 279.1813999999999 305.6389 278.6864999999999 C 305.25649999999996 278.1883999999999 304.6122 277.9403999999999 303.6912 277.9403999999999 L 300.2647 277.9403999999999 L 300.2647 285.5462999999999 z M 285.21070000000003 285.54630000000003 L 285.21070000000003 268.34340000000003 L 287.20770000000005 268.34340000000003 L 287.20770000000005 277.0384 L 293.37480000000005 268.34340000000003 L 295.90500000000003 268.34340000000003 L 290.29580000000004 275.5774 L 296.09180000000003 285.54630000000003 L 293.5613 285.54630000000003 L 289.01250000000005 277.38430000000005 L 287.20770000000005 279.56320000000005 L 287.20770000000005 285.54630000000003 z" stroke-linecap="round" />
</g>
		<g transform="matrix(1.33 0 0 1.33 -147.09 -10.72)" id="path6"  >
<path style="stroke: none; stroke-width: 1; stroke-dasharray: none; stroke-linecap: butt; stroke-dashoffset: 0; stroke-linejoin: miter; stroke-miterlimit: 4; fill: rgb(27,25,24); fill-rule: evenodd; opacity: 1;" vector-effect="non-scaling-stroke"  transform=" translate(-158.61, -263.76)" d="M 158.8836 204.9712 C 196.0906 221.5902 212.4133 269.7721 215.0753 290.0273 C 188.1334 306.21000000000004 128.7944 308.70820000000003 102.2499 289.3842 C 102.7783 270.16920000000005 125.7474 217.62650000000002 158.8836 204.9712 z M 188.8855 306.9312 L 189.8583 310.441 L 192.08350000000002 309.81429999999995 C 192.66350000000003 309.65219999999994 193.08640000000003 309.39619999999996 193.3523 309.05629999999996 C 193.6723 308.63419999999996 193.73950000000002 308.0852 193.55130000000003 307.41339999999997 C 193.41160000000002 306.90229999999997 193.12950000000004 306.5621 192.70830000000004 306.39829999999995 C 192.17650000000003 306.18309999999997 191.41140000000004 306.22029999999995 190.40940000000003 306.5011999999999 z M 165.01440000000002 310.9133 L 165.33330000000004 314.15409999999997 L 167.56160000000003 313.933 C 168.49130000000002 313.8392 169.12940000000003 313.61129999999997 169.4713 313.2403 C 169.7315 312.9542 169.83640000000003 312.5792 169.79240000000001 312.1092 C 169.74140000000003 311.5791 169.5044 311.1914 169.08630000000002 310.94329999999997 C 168.66850000000002 310.695 168.15940000000003 310.59919999999994 167.55930000000004 310.6602 z M 182.71760000000003 304.6972 L 190.23340000000005 302.5772 C 192.48550000000006 301.9431 194.30140000000006 301.9433 195.68440000000004 302.5792 C 197.06740000000005 303.2142 198.01250000000005 304.4402 198.51450000000003 306.2493 C 198.95240000000004 307.8163 198.84250000000003 309.1692 198.19050000000001 310.3164 C 197.4036 311.70619999999997 195.84650000000002 312.7264 193.5224 313.38239999999996 L 190.8833 314.12649999999996 L 192.25639999999999 319.06019999999995 L 187.1164 320.50919999999996 z M 120.70740000000004 301.1562 L 125.87640000000003 302.5862 L 124.48030000000003 307.7042 L 130.43650000000002 303.8451 L 136.43830000000003 305.5042 L 129.08950000000002 309.89820000000003 L 132.75160000000002 321.51320000000004 L 126.57540000000003 319.8061 L 124.49930000000003 312.4522 L 122.92950000000003 313.3922 L 121.55640000000004 318.4191 L 116.38740000000004 316.9922 z M 145.33740000000003 306.5051 L 150.66740000000004 307.1052 L 148.86260000000004 323.42510000000004 L 143.53260000000003 322.82700000000006 z M 159.32640000000004 307.6322 L 167.18460000000005 306.8512 C 169.96140000000005 306.5763 171.93630000000005 306.8512 173.10840000000005 307.6812 C 173.98940000000005 308.31219999999996 174.50140000000005 309.34909999999996 174.64540000000005 310.8002 C 174.75450000000006 311.91700000000003 174.58840000000006 312.83520000000004 174.15130000000005 313.5523 C 173.71360000000004 314.2653 173.09850000000006 314.7693 172.31130000000005 315.0624 C 173.60650000000004 315.43710000000004 174.42230000000004 315.91020000000003 174.77040000000005 316.47630000000004 C 175.11250000000004 317.0441 175.34240000000005 317.93330000000003 175.46340000000006 319.14430000000004 L 175.58650000000006 320.41110000000003 C 175.64340000000007 321.00120000000004 175.72730000000007 321.41110000000003 175.83340000000007 321.64610000000005 C 175.94050000000007 321.88030000000003 176.09640000000007 321.9863 176.30730000000005 321.96420000000006 L 176.35440000000006 322.44120000000004 L 170.99550000000005 322.9741 C 170.83840000000004 322.60900000000004 170.65330000000006 321.6694 170.43450000000004 320.16020000000003 C 170.21930000000003 318.6462 169.80150000000003 317.8142 169.17850000000004 317.66310000000004 C 168.83860000000004 317.59110000000004 168.46130000000005 317.5563 168.05340000000004 317.5563 C 167.64550000000003 317.55830000000003 167.11850000000004 317.59310000000005 166.47140000000005 317.6583 L 165.68450000000004 317.7343 L 166.24540000000005 323.44530000000003 L 160.93130000000005 323.9762 z M 160.68160000000003 200.0401 C 197.58840000000004 217.5775 222.00630000000004 269.8441 222.85250000000002 311.0664 C 187.80150000000003 332.1581 132.24530000000001 335.01709999999997 94.36420000000001 311.0664 C 96.0545 253.7731 132.6793 209.70279999999997 156.5974 200.05089999999998 C 158.8073 199.1582 159.25039999999998 199.62109999999998 160.6816 200.0401 z" stroke-linecap="round" />
</g>
		<g transform="matrix(1.33 0 0 1.33 -102.33 78.21)" id="path8"  >
<path style="stroke: none; stroke-width: 1; stroke-dasharray: none; stroke-linecap: butt; stroke-dashoffset: 0; stroke-linejoin: miter; stroke-miterlimit: 4; fill: rgb(27,25,24); fill-rule: evenodd; opacity: 1;" vector-effect="non-scaling-stroke"  transform=" translate(-192.18, -330.46)" d="M 159.3595 342.7923 L 164.0324 333.1202 L 170.2525 332.82030000000003 L 164.7094 338.4272 L 173.14749999999998 331.9472 L 178.22549999999998 331.50530000000003 L 177.21159999999998 333.7943 C 179.40759999999997 331.7162 181.87649999999996 330.3632 184.22529999999998 330.07210000000003 L 183.7256 331.73210000000006 C 187.1943 329.5443000000001 190.6084 328.35710000000006 193.9595 328.3722000000001 L 192.5266 330.4582000000001 L 195.1705 330.2121000000001 C 199.4715 324.66100000000006 207.8195 320.39040000000006 224.9955 315.4521000000001 L 223.4115 317.54640000000006 L 202.5655 328.18710000000004 C 206.6335 328.52720000000005 218.4525 321.4392 222.23139999999998 319.2103 C 217.20839999999998 330.0384 208.31529999999998 334.53130000000004 195.5554 332.6811 C 188.3605 332.0991 183.9365 333.11310000000003 179.3134 336.54810000000003 C 187.9384 333.95610000000005 197.2154 333.4762 206.2763 336.1263 C 194.5383 346.4212 194.8294 348.6093 176.2954 340.6711 C 168.2175 337.5873 164.1654 340.8392 159.3595 342.7923 z" stroke-linecap="round" />
</g>
		<g transform="matrix(1.33 0 0 1.33 -147.09 86.77)" id="path10"  >
<path style="stroke: none; stroke-width: 1; stroke-dasharray: none; stroke-linecap: butt; stroke-dashoffset: 0; stroke-linejoin: miter; stroke-miterlimit: 4; fill: rgb(27,25,24); fill-rule: evenodd; opacity: 1;" vector-effect="non-scaling-stroke"  transform=" translate(-158.61, -336.88)" d="M 154.4454 333.2792 L 158.6013 340.5742 L 162.7744 333.18710000000004 L 159.2535 333.22620000000006 C 159.2314 333.8631000000001 159.6393 333.90430000000003 159.6393 334.55620000000005 C 159.6396 335.01120000000003 159.2405 335.51720000000006 158.74949999999998 335.51720000000006 C 158.25859999999997 335.51720000000006 157.8603 335.0112000000001 157.8603 334.55620000000005 C 157.8606 333.88610000000006 158.2234 333.87820000000005 158.1633 333.23410000000007 z" stroke-linecap="round" />
</g>
		<g transform="matrix(1.33 0 0 1.33 -191.92 78.21)" id="path12"  >
<path style="stroke: none; stroke-width: 1; stroke-dasharray: none; stroke-linecap: butt; stroke-dashoffset: 0; stroke-linejoin: miter; stroke-miterlimit: 4; fill: rgb(27,25,24); fill-rule: evenodd; opacity: 1;" vector-effect="non-scaling-stroke"  transform=" translate(-124.99, -330.46)" d="M 157.8044 342.7923 L 153.13039999999998 333.1202 L 146.9123 332.82030000000003 L 152.4563 338.4272 L 144.0176 331.9492 L 138.93929999999997 331.50730000000004 L 139.95239999999998 333.79230000000007 C 137.7575 331.7162000000001 135.29029999999997 330.36320000000006 132.93749999999997 330.0721000000001 L 133.44039999999998 331.7321000000001 C 129.97129999999999 329.54430000000013 126.55639999999998 328.3551000000001 123.20649999999998 328.37220000000013 L 124.63649999999998 330.45820000000015 L 121.99439999999998 330.21210000000013 C 117.69339999999998 324.6610000000001 109.34529999999998 320.3904000000001 92.16989999999998 315.45210000000014 L 93.75389999999999 317.5464000000001 L 114.59849999999999 328.1871000000001 C 110.53049999999999 328.5272000000001 98.71369999999999 321.4372000000001 94.93259999999998 319.2103000000001 C 99.95699999999998 330.0384000000001 108.84839999999998 334.5293000000001 121.60739999999998 332.6811000000001 C 128.80349999999999 332.0991000000001 133.22639999999998 333.1131000000001 137.85139999999998 336.5461000000001 C 129.22529999999998 333.9561000000001 119.94749999999999 333.47620000000006 110.88849999999998 336.12630000000007 C 122.62649999999998 346.42120000000006 122.33539999999998 348.6093000000001 140.86939999999998 340.6731000000001 C 148.94729999999998 337.5873000000001 153.0014 340.83920000000006 157.8044 342.79230000000007 z" stroke-linecap="round" />
</g>
		<g transform="matrix(1.33 0 0 1.33 -165.84 98.51)" id="path14"  >
<path style="stroke: none; stroke-width: 1; stroke-dasharray: none; stroke-linecap: butt; stroke-dashoffset: 0; stroke-linejoin: miter; stroke-miterlimit: 4; fill: rgb(27,25,24); fill-rule: evenodd; opacity: 1;" vector-effect="non-scaling-stroke"  transform=" translate(-144.54, -345.68)" d="M 158.2863 346.1522 C 151.9353 338.2322 143.3075 339.2711 130.80130000000003 346.1202 C 139.50740000000002 352.6651 151.70940000000002 351.9624 158.28630000000004 346.1522 z" stroke-linecap="round" />
</g>
		<g transform="matrix(1.33 0 0 1.33 -93.64 -30.66)" id="path16"  >
<path style="stroke: none; stroke-width: 1; stroke-dasharray: none; stroke-linecap: butt; stroke-dashoffset: 0; stroke-linejoin: miter; stroke-miterlimit: 4; fill: rgb(27,25,24); fill-rule: evenodd; opacity: 1;" vector-effect="non-scaling-stroke"  transform=" translate(-198.69, -248.8)" d="M 190.2974 219.3902 L 188.78660000000002 218.2476 C 180.44840000000002 209.0072 170.96140000000003 201.4557 160.53850000000003 196.5042 C 160.20850000000002 196.4064 159.92450000000002 196.30689999999998 159.66340000000002 196.22129999999999 L 159.59340000000003 196.1691 C 165.59860000000003 197.4903 171.60240000000005 199.9097 177.60640000000004 203.07969999999997 L 161.94050000000004 192.8721 C 169.34060000000005 194.3785 176.74130000000005 195.88479999999998 184.13940000000005 197.39309999999998 C 186.07350000000005 209.10699999999997 192.31340000000006 217.57489999999999 203.45840000000004 222.8071 C 193.07930000000005 215.6136 186.44430000000006 207.0694 186.34250000000003 198.4161 C 198.81550000000004 203.2095 209.17050000000003 210.236 208.32350000000002 218.5319 C 207.32940000000002 230.279 209.56340000000003 235.823 215.41350000000003 239.3963 L 215.6494 239.1642 C 209.0166 230.79829999999998 207.91840000000002 223.18609999999998 210.20030000000003 215.36589999999998 C 218.19060000000002 222.22799999999998 222.41140000000001 227.5503 221.37930000000003 231.30819999999997 C 218.95460000000003 240.93209999999996 218.83150000000003 250.37229999999997 220.15330000000003 258.04029999999995 C 214.85850000000002 254.80199999999994 209.97750000000002 250.52429999999995 207.88750000000002 244.95219999999995 L 213.22150000000002 244.43319999999994 L 206.5346 243.33619999999993 C 205.23940000000002 241.01319999999993 203.8915 238.72929999999994 202.4875 236.49529999999993 L 210.0325 237.56509999999992 L 200.5965 233.56889999999993 C 199.64749999999998 232.13539999999992 198.6744 230.72309999999993 197.6805 229.33449999999993 L 200.7933 227.36949999999993 L 196.4443 227.63539999999992 C 195.1104 225.8336999999999 193.7353 224.07559999999992 192.3293 222.36489999999992 L 198.7804 223.65379999999993 L 190.3235 219.37269999999992 C 190.3135 219.37969999999993 190.3054 219.3842999999999 190.29739999999998 219.39019999999994 z M 226.74560000000002 304.736 C 226.82750000000001 294.71729999999997 229.6023 286.2703 237.79530000000003 277.17109999999997 C 237.69440000000003 287.5363 233.9345 296.5343 226.74560000000002 304.736 z M 223.4696 287.9133 C 225.59240000000003 284.6262 232.82530000000003 278.8353 235.4094 277.9081 C 231.6163 283.0071 228.1124 289.30539999999996 224.8974 295.1734 C 224.4835 292.7631 224.00650000000002 290.3423 223.4696 287.9133 z M 212.28040000000001 254.6833 L 223.1654 260.9742 C 219.6573 251.5292 218.9854 242.0291 223.9155 232.4117 C 232.7525 246.5762 232.44240000000002 249.9032 223.7845 266.3802 L 223.7295 276.6722 C 224.6786 268.2462 227.3343 261.1233 232.4835 255.90219999999997 C 238.5984 267.68319999999994 234.2154 277.13109999999995 222.9174 285.51709999999997 C 220.44439999999997 275.125 216.85829999999999 264.6683 212.2804 254.68329999999997 z" stroke-linecap="round" />
</g>
		<g transform="matrix(1.33 0 0 1.33 -128.41 98.51)" id="path18"  >
<path style="stroke: none; stroke-width: 1; stroke-dasharray: none; stroke-linecap: butt; stroke-dashoffset: 0; stroke-linejoin: miter; stroke-miterlimit: 4; fill: rgb(27,25,24); fill-rule: evenodd; opacity: 1;" vector-effect="non-scaling-stroke"  transform=" translate(-172.62, -345.68)" d="M 158.8793 346.1522 C 165.2295 338.23019999999997 173.8565 339.2711 186.3624 346.1202 C 177.65550000000002 352.6651 165.4583 351.9624 158.8793 346.1522 z" stroke-linecap="round" />
</g>
		<g transform="matrix(1.33 0 0 1.33 -199.96 -30.72)" id="path20"  >
<path style="stroke: none; stroke-width: 1; stroke-dasharray: none; stroke-linecap: butt; stroke-dashoffset: 0; stroke-linejoin: miter; stroke-miterlimit: 4; fill: rgb(27,25,24); fill-rule: evenodd; opacity: 1;" vector-effect="non-scaling-stroke"  transform=" translate(-118.96, -248.76)" d="M 90.9062 304.6921 C 90.8252 294.6762 88.0498 286.2292 79.8554 277.12829999999997 C 79.9588 287.49399999999997 83.72070000000001 296.4903 90.9062 304.6921 z M 127.3544 219.34709999999998 L 128.8664 218.20559999999998 C 137.2025 208.96379999999996 146.6895 201.4123 157.1145 196.46049999999997 C 157.44559999999998 196.36329999999998 157.7265 196.26319999999996 157.9893 196.17789999999997 L 158.05839999999998 196.12519999999998 C 152.05349999999999 197.44669999999996 146.0494 199.8669 140.04449999999997 203.03719999999998 L 155.71049999999997 192.82819999999998 C 148.31039999999996 194.3345 140.91139999999996 195.8414 133.51039999999998 197.34859999999998 C 131.57939999999996 209.0639 125.33729999999997 217.53069999999997 114.19429999999997 222.76319999999998 C 124.57449999999997 215.57 131.20749999999998 207.0264 131.30839999999998 198.3722 C 118.83739999999997 203.16559999999998 108.48049999999998 210.1924 109.32749999999999 218.4888 C 110.32239999999999 230.2347 108.08729999999998 235.779 102.23909999999998 239.3512 L 102.00299999999999 239.1231 C 108.63549999999998 230.75549999999998 109.73339999999999 223.14419999999998 107.45009999999999 215.3228 C 99.46289999999999 222.1841 95.2421 227.5084 96.2714 231.2643 C 98.6973 240.88819999999998 98.8231 250.3281 97.4991 257.9973 C 102.7939 254.75809999999998 107.6746 250.4803 109.7654 244.9103 L 104.4298 244.38930000000002 L 111.1204 243.29110000000003 C 112.4144 240.96930000000003 113.76230000000001 238.68620000000004 115.1654 236.45230000000004 L 107.62100000000001 237.52200000000005 L 117.05440000000002 233.52490000000006 C 118.00430000000001 232.09140000000005 118.97630000000001 230.67840000000007 119.97040000000001 229.29050000000007 L 116.85740000000001 227.32670000000007 L 121.20830000000001 227.59230000000008 C 122.54230000000001 225.79060000000007 123.9154 224.03280000000007 125.32450000000001 222.32180000000008 L 118.87260000000002 223.6099000000001 L 127.32830000000001 219.32960000000008 C 127.33630000000001 219.33560000000008 127.34530000000001 219.34230000000008 127.35440000000001 219.3471000000001 z M 105.37 254.63909999999998 L 94.4872 260.93109999999996 C 97.9931 251.48719999999997 98.6669 241.98429999999996 93.7372 232.36869999999996 C 84.8993 246.53229999999996 85.2089 249.86009999999996 93.867 266.33619999999996 L 93.9217 276.62829999999997 C 92.9716 268.2043 90.3163 261.0802 85.16890000000001 255.85709999999997 C 79.0537 267.6413 83.4364 277.0883 94.73330000000001 285.47319999999996 C 97.20790000000001 275.0811 100.79400000000001 264.6264 105.37000000000002 254.63909999999996 z M 94.1837 287.871 C 92.0585 284.5823 84.8271 278.7911 82.2402 277.8653 C 86.0352 282.9631 89.5399 289.2611 92.7539 295.1303 C 93.168 292.72029999999995 93.64450000000001 290.2983 94.1837 287.871 z" stroke-linecap="round" />
</g>
		<g transform="matrix(1.33 0 0 1.33 -147.05 -20.8)" id="path22"  >
<path style="stroke: none; stroke-width: 1; stroke-dasharray: none; stroke-linecap: butt; stroke-dashoffset: 0; stroke-linejoin: miter; stroke-miterlimit: 4; fill: rgb(27,25,24); fill-rule: evenodd; opacity: 1;" vector-effect="non-scaling-stroke"  transform=" translate(-158.64, -256.2)" d="M 142.1476 229.0544 C 142.1476 224.73379999999997 143.63940000000002 221.08759999999998 146.63850000000002 218.1266 C 149.62340000000003 215.1499 153.56150000000002 213.66989999999998 158.46750000000003 213.66989999999998 C 165.68250000000003 213.66989999999998 170.65130000000002 216.0349 173.38930000000002 220.78289999999998 C 174.81940000000003 223.25439999999998 175.5884 226.4751 175.68030000000002 230.44279999999998 L 167.79030000000003 230.44279999999998 C 167.57550000000003 227.60389999999998 167.08340000000004 225.5134 166.29530000000003 224.17059999999998 C 164.88340000000002 221.72799999999998 162.40540000000001 220.50849999999997 158.86830000000003 220.50849999999997 C 156.03760000000003 220.50819999999996 153.88440000000003 221.16269999999997 152.39140000000003 222.49079999999998 C 150.90040000000002 223.81879999999998 150.16250000000002 225.58929999999998 150.16250000000002 227.80319999999998 C 150.16250000000002 229.08559999999997 150.43830000000003 230.24469999999997 150.99250000000004 231.26829999999998 C 151.54530000000003 232.30599999999998 152.39140000000003 233.20659999999998 153.49950000000004 233.96939999999998 C 155.71450000000004 235.49559999999997 159.66740000000004 237.8302 165.34430000000003 240.9911 C 175.44840000000002 246.60819999999998 180.49550000000002 252.5304 180.49550000000002 258.8031 C 180.49550000000002 262.3442 179.41830000000002 265.44219999999996 177.24930000000003 268.09939999999995 C 176.01850000000005 269.6252999999999 173.92650000000003 271.42609999999996 170.98950000000002 273.51609999999994 C 172.57550000000003 274.96709999999996 173.80540000000002 276.5700999999999 174.6785 278.29419999999993 C 175.5595 280.0181999999999 175.9873 281.88109999999995 175.9873 283.88129999999995 C 175.98760000000001 287.91009999999994 174.4033 291.39019999999994 171.2494 294.32129999999995 C 168.0985 297.26619999999997 163.8505 298.73229999999995 158.4995 298.73229999999995 C 151.4384 298.73229999999995 146.5004 296.47329999999994 143.68540000000002 291.94019999999995 C 142.1175 289.49729999999994 141.16340000000002 286.03329999999994 140.8394 281.5602999999999 L 148.85430000000002 281.5602999999999 C 149.09950000000003 284.47509999999994 149.62340000000003 286.6271999999999 150.43830000000003 288.0002999999999 C 151.86840000000004 290.4751999999999 154.37650000000002 291.7102999999999 157.96030000000002 291.7102999999999 C 160.29840000000002 291.7102999999999 162.17430000000002 291.3901999999999 163.59050000000002 290.7642999999999 C 166.2375 289.6052999999999 167.5593 287.4211999999999 167.5593 284.2012999999999 C 167.55960000000002 282.8270999999999 167.1593 281.5440999999999 166.3444 280.3551999999999 C 165.8684 279.69819999999993 165.1904 279.0121999999999 164.3134 278.29419999999993 C 163.8366 277.91209999999995 162.2665 276.81339999999994 159.6223 275.02809999999994 C 158.0683 273.9891999999999 156.5765 272.98319999999995 155.1603 272.0360999999999 L 147.1473 266.70809999999994 C 143.9623 264.6030999999999 141.6855 262.75629999999995 140.3325 261.21509999999995 C 137.9625 258.55909999999994 136.7793 255.58129999999994 136.7793 252.26929999999996 C 136.7793 249.40199999999996 137.6705 246.82219999999995 139.4393 244.50239999999997 C 141.2096 242.19719999999995 143.5465 240.16619999999998 146.4233 238.41129999999995 C 145.1004 237.20509999999996 144.08530000000002 235.92329999999995 143.3625 234.56489999999997 C 142.5475 232.82479999999995 142.1473 230.99389999999997 142.1476 229.05439999999996 z M 166.38940000000002 269.7911 C 168.15940000000003 268.7851 169.4653 267.77739999999994 170.31150000000002 266.75519999999995 C 171.80330000000004 264.99909999999994 172.55740000000003 262.81729999999993 172.55740000000003 260.22219999999993 C 172.55740000000003 257.90309999999994 171.75830000000002 255.91829999999993 170.17430000000002 254.28419999999994 C 169.17450000000002 253.26229999999995 167.1724 251.84209999999993 164.1294 249.98029999999994 L 151.0234 242.02909999999994 C 149.2534 242.97509999999994 147.94750000000002 243.90619999999996 147.1005 244.80619999999993 C 145.5154 246.46899999999994 144.71550000000002 248.50119999999993 144.71550000000002 250.88029999999992 C 144.71550000000002 252.1632999999999 144.9164 253.29229999999993 145.30050000000003 254.2841999999999 C 146.05340000000004 256.1019999999999 147.45430000000002 257.6590999999999 149.48530000000002 258.9711999999999 z" stroke-linecap="round" />
</g>
</g>
</g>
</svg>