<?xml version="1.0" standalone="no"?>
<!DOCTYPE svg PUBLIC "-//W3C//DTD SVG 20010904//EN"
 "http://www.w3.org/TR/2001/REC-SVG-20010904/DTD/svg10.dtd">
<svg version="1.0" xmlns="http://www.w3.org/2000/svg"
 width="860.000000pt" height="978.000000pt" viewBox="0 0 860.000000 978.000000"
 preserveAspectRatio="xMidYMid meet">

<g transform="translate(0.000000,978.000000) scale(0.100000,-0.100000)"
fill="#000000" stroke="none">
<path d="M1875 9363 c-382 -22 -739 -217 -964 -525 -277 -381 -315 -898 -98
-1322 283 -555 924 -820 1522 -630 356 114 664 409 799 766 56 151 71 239 71
443 0 166 -3 202 -24 285 -60 241 -167 434 -331 600 -148 150 -316 256 -505
319 -138 46 -331 72 -470 64z m180 -738 c195 -41 360 -198 416 -395 21 -79 15
-225 -13 -306 -109 -311 -457 -460 -747 -320 -208 100 -324 299 -308 529 13
197 125 362 302 447 123 59 221 72 350 45z"/>
<path d="M6549 9359 c-536 -47 -995 -443 -1118 -967 -61 -261 -42 -526 56
-770 43 -107 55 -130 122 -232 132 -203 345 -376 571 -468 421 -171 887 -112
1247 157 463 346 631 958 412 1498 -208 513 -731 830 -1290 782z m245 -739
c107 -27 169 -63 254 -146 168 -167 208 -403 103 -618 -165 -340 -617 -409
-876 -134 -209 221 -205 542 9 753 82 81 145 118 248 145 95 25 166 25 262 0z"/>
<path d="M1577 6449 c-325 -44 -620 -192 -855 -430 -183 -186 -306 -409 -379
-689 l-27 -105 -4 -1062 -3 -1063 361 -180 360 -180 0 -1045 0 -1045 365 0
365 0 0 1270 0 1269 -366 182 -365 181 4 782 c4 874 1 836 77 991 96 195 265
332 474 385 71 18 112 20 386 20 272 0 315 -2 384 -20 152 -39 308 -141 401
-265 27 -35 148 -263 292 -550 l246 -490 549 -430 c302 -236 555 -430 562
-430 7 0 127 111 266 247 l254 247 -24 19 c-14 11 -164 131 -335 267 -170 135
-397 315 -503 398 l-193 152 -224 445 c-246 488 -293 563 -443 715 -196 198
-446 333 -730 396 -88 20 -132 22 -462 25 -201 1 -396 -2 -433 -7z"/>
<path d="M6250 6449 c-423 -54 -799 -288 -1032 -643 -32 -49 -153 -277 -268
-507 l-210 -418 -69 -53 c-39 -29 -69 -56 -68 -60 4 -16 580 -459 591 -454 6
2 37 25 68 50 l58 46 249 497 c201 401 261 511 306 566 95 115 229 199 379
237 71 18 112 20 380 20 349 0 395 -7 531 -74 182 -90 310 -239 379 -440 20
-59 20 -82 24 -863 l3 -803 -361 -180 -360 -180 0 -1270 0 -1270 360 0 360 0
0 1043 0 1042 365 183 366 182 -4 1048 c-3 1046 -3 1047 -26 1147 -67 298
-183 515 -385 723 -237 244 -533 391 -871 431 -104 13 -668 13 -765 0z"/>
<path d="M2120 1920 l0 -1270 365 0 365 0 0 1270 0 1270 -365 0 -365 0 0
-1270z"/>
<path d="M5760 1920 l0 -1270 360 0 360 0 0 1270 0 1270 -360 0 -360 0 0
-1270z"/>
</g>
</svg>
