<?xml version="1.0" standalone="no"?>
<!DOCTYPE svg PUBLIC "-//W3C//DTD SVG 20010904//EN"
 "http://www.w3.org/TR/2001/REC-SVG-20010904/DTD/svg10.dtd">
<svg version="1.0" xmlns="http://www.w3.org/2000/svg"
 width="270.000000pt" height="261.000000pt" viewBox="0 0 270.000000 261.000000"
 preserveAspectRatio="xMidYMid meet">

<g transform="translate(0.000000,261.000000) scale(0.100000,-0.100000)"
fill="#000000" stroke="none">
<path d="M1635 2209 c-22 -5 -113 -10 -202 -11 -146 -3 -163 -5 -163 -20 0
-12 11 -19 35 -24 44 -8 82 -46 92 -93 5 -20 8 -334 8 -698 0 -654 0 -662 -21
-690 -13 -17 -39 -33 -67 -42 -30 -9 -47 -20 -47 -30 0 -14 32 -16 280 -16
253 0 280 2 280 16 0 18 -20 29 -50 29 -10 0 -30 14 -44 31 l-26 31 0 219 0
219 24 0 c13 0 35 -12 49 -26 26 -26 234 -396 244 -434 4 -14 -3 -24 -26 -37
-17 -10 -31 -25 -31 -33 0 -13 33 -15 242 -14 160 1 243 5 246 12 2 6 -19 32
-46 59 -34 34 -103 138 -230 351 -100 167 -182 306 -182 309 0 3 30 38 67 79
84 95 173 166 257 205 113 53 97 59 -159 61 -124 1 -233 2 -242 2 -12 1 -18
-6 -18 -19 0 -15 9 -21 35 -26 46 -7 97 -35 110 -58 5 -11 10 -39 10 -62 0
-40 -5 -47 -112 -156 -132 -134 -151 -149 -201 -158 l-37 -7 -2 518 c-3 576 3
530 -73 513z"/>
<path d="M526 1679 c-66 -14 -164 -60 -204 -98 -61 -57 -79 -143 -44 -211 49
-97 191 -109 265 -21 22 27 27 42 27 89 0 68 -24 113 -75 143 -19 12 -35 23
-35 25 0 11 53 35 99 44 91 17 160 -13 199 -85 11 -21 17 -66 20 -151 6 -182
-1 -191 -228 -270 -215 -74 -279 -114 -320 -200 -18 -37 -21 -58 -19 -128 4
-71 8 -89 34 -132 47 -75 106 -107 209 -112 126 -7 183 14 262 92 l62 63 7
-34 c9 -48 59 -101 108 -114 71 -19 195 -7 261 25 39 19 56 33 56 47 0 23 -9
24 -46 4 -37 -19 -49 -19 -68 1 -14 13 -16 59 -16 347 0 342 -9 477 -37 535
-23 49 -71 92 -133 121 -49 22 -70 25 -195 27 -77 2 -162 -1 -189 -7z m254
-683 l0 -204 -27 -33 c-47 -56 -124 -74 -183 -44 -60 31 -84 131 -56 227 19
65 68 122 162 185 33 23 66 48 73 57 7 9 17 16 22 16 5 0 9 -92 9 -204z"/>
</g>
</svg>
